<?xml version="1.0" standalone="no"?>
<!DOCTYPE svg PUBLIC "-//W3C//DTD SVG 20010904//EN"
 "http://www.w3.org/TR/2001/REC-SVG-20010904/DTD/svg10.dtd">
<svg version="1.0" xmlns="http://www.w3.org/2000/svg"
 width="700.000000pt" height="700.000000pt" viewBox="0 0 700.000000 700.000000"
 preserveAspectRatio="xMidYMid meet">
<metadata>
Created by potrace 1.14, written by Peter Selinger 2001-2017
</metadata>
<g transform="translate(0.000000,700.000000) scale(0.100000,-0.100000)"
fill="#000000" stroke="none">
<path d="M2092 6989 c-93 -18 -140 -74 -127 -153 3 -22 14 -51 25 -64 25 -30
78 -51 115 -45 17 2 71 5 121 5 118 1 243 -38 319 -97 19 -15 19 -17 2 -26
-43 -25 -169 -134 -244 -212 -220 -230 -369 -508 -427 -802 -8 -44 -18 -93
-22 -110 -10 -50 -12 -366 -3 -433 8 -58 12 -80 24 -142 4 -21 -5 -33 -53 -72
-114 -92 -139 -115 -242 -218 -108 -108 -161 -168 -246 -280 -58 -76 -159
-228 -176 -264 -6 -14 -14 -26 -17 -26 -16 0 -102 66 -153 116 -93 92 -150
222 -161 367 -7 80 -33 129 -79 148 -68 28 -154 -6 -176 -71 -6 -16 -9 -62 -7
-102 9 -174 77 -343 196 -486 57 -69 196 -183 239 -197 25 -8 25 -15 0 -68
-68 -148 -148 -433 -180 -641 -16 -99 -27 -233 -30 -346 l-1 -55 -56 -35
c-104 -64 -217 -187 -286 -311 -74 -134 -117 -349 -87 -438 23 -71 108 -104
179 -69 48 24 66 60 76 152 9 89 29 156 71 236 30 57 110 157 119 148 2 -1 6
-28 10 -58 45 -365 200 -783 409 -1099 l73 -111 -56 -47 c-200 -172 -304 -387
-305 -635 -1 -57 3 -70 24 -93 94 -101 224 -50 235 91 8 97 25 165 61 240 35
71 112 165 172 208 l33 24 122 -122 c313 -312 655 -524 1069 -660 316 -104
595 -144 933 -132 207 7 231 9 380 36 140 26 155 29 200 42 22 6 45 12 50 13
46 10 181 56 281 95 358 142 648 333 921 607 l123 123 52 -43 c129 -105 196
-243 214 -437 2 -30 11 -65 19 -77 58 -88 194 -74 231 23 12 31 14 59 9 110
-19 206 -104 392 -240 524 -70 68 -75 72 -102 91 -21 14 -20 15 57 137 218
341 350 705 413 1142 2 12 6 10 22 -6 57 -58 81 -94 115 -168 39 -84 48 -120
56 -215 5 -74 18 -101 59 -130 57 -39 122 -31 170 19 23 24 30 41 33 87 9 125
-39 297 -122 438 -48 83 -189 227 -264 270 l-52 30 -1 65 c-2 127 -16 258 -44
419 -30 169 -77 332 -152 524 -19 49 -33 90 -31 91 1 1 21 13 43 26 193 114
357 339 391 540 3 14 7 32 10 41 13 45 13 161 0 193 -39 93 -174 106 -226 21
-12 -20 -23 -58 -25 -92 -13 -160 -62 -275 -158 -373 -46 -48 -155 -127 -161
-118 -2 1 -20 32 -41 68 -138 234 -375 505 -603 689 -86 70 -91 76 -86 105 39
203 40 456 5 646 -73 387 -274 720 -594 985 -27 22 -60 47 -73 55 -13 8 -23
19 -21 24 7 20 114 71 194 91 81 21 135 23 263 11 85 -8 155 75 135 163 -8 39
-58 87 -98 96 -65 14 -242 14 -312 0 -155 -31 -310 -106 -406 -198 l-26 -25
-109 40 c-60 22 -117 42 -126 44 -10 2 -28 7 -40 10 -147 38 -288 53 -453 49
-82 -2 -166 -6 -185 -10 -164 -28 -214 -41 -317 -76 -64 -22 -125 -45 -135
-50 -14 -8 -24 -4 -46 16 -60 58 -179 130 -266 162 -117 43 -320 63 -424 42z"/>
</g>
</svg>
